<svg width="153" height="59" viewBox="0 0 153 59" fill="none" xmlns="http://www.w3.org/2000/svg">
<path d="M61.186 43.8188L59.5337 49H58.0044L60.373 42.6016H61.3398L61.186 43.8188ZM62.5571 49L60.9004 43.8188L60.729 42.6016H61.709L64.0864 49H62.5571ZM62.4868 46.6182V47.7256H59.1514V46.6182H62.4868ZM76.8485 46.8555H78.2723C78.2489 47.2949 78.1288 47.6831 77.912 48.02C77.6981 48.354 77.4007 48.6162 77.0199 48.8066C76.639 48.9941 76.1864 49.0879 75.662 49.0879C75.243 49.0879 74.868 49.0161 74.537 48.8726C74.2059 48.729 73.9247 48.5239 73.6932 48.2573C73.4647 47.9878 73.2889 47.6641 73.1659 47.2861C73.0458 46.9053 72.9857 46.4761 72.9857 45.9985V45.6074C72.9857 45.1299 73.0487 44.7007 73.1747 44.3198C73.3006 43.939 73.4808 43.6138 73.7152 43.3442C73.9496 43.0747 74.2308 42.8682 74.5589 42.7246C74.8871 42.5811 75.2533 42.5093 75.6576 42.5093C76.2025 42.5093 76.6625 42.6074 77.0375 42.8037C77.4125 43 77.7025 43.2695 77.9076 43.6123C78.1156 43.9551 78.2401 44.3462 78.2811 44.7856H76.8529C76.8412 44.5366 76.7943 44.3271 76.7123 44.1572C76.6302 43.9844 76.5043 43.854 76.3343 43.7661C76.1644 43.6782 75.9388 43.6343 75.6576 43.6343C75.4525 43.6343 75.2723 43.6724 75.1171 43.7485C74.9647 43.8247 74.8373 43.9434 74.7347 44.1045C74.6351 44.2656 74.5604 44.4707 74.5106 44.7197C74.4608 44.9658 74.4359 45.2588 74.4359 45.5986V45.9985C74.4359 46.3354 74.4579 46.627 74.5018 46.873C74.5458 47.1191 74.6161 47.3228 74.7128 47.4839C74.8124 47.645 74.9398 47.7651 75.0951 47.8442C75.2504 47.9233 75.4393 47.9629 75.662 47.9629C75.9169 47.9629 76.1293 47.9233 76.2992 47.8442C76.4691 47.7622 76.5995 47.6392 76.6903 47.4751C76.7811 47.311 76.8338 47.1045 76.8485 46.8555ZM90.3664 43.8188L88.7141 49H87.1848L89.5534 42.6016H90.5202L90.3664 43.8188ZM91.7375 49L90.0808 43.8188L89.9094 42.6016H90.8894L93.2668 49H91.7375ZM91.6672 46.6182V47.7256H88.3318V46.6182H91.6672ZM104.464 49H103.058L103.067 47.8926H104.464C104.784 47.8926 105.053 47.8193 105.273 47.6729C105.493 47.5234 105.66 47.3037 105.774 47.0137C105.888 46.7207 105.945 46.3647 105.945 45.9458V45.6514C105.945 45.335 105.913 45.0566 105.849 44.8164C105.784 44.5732 105.689 44.3696 105.563 44.2056C105.437 44.0415 105.28 43.9185 105.093 43.8364C104.908 43.7544 104.696 43.7134 104.456 43.7134H103.032V42.6016H104.456C104.889 42.6016 105.285 42.6748 105.642 42.8213C106.003 42.9678 106.313 43.1772 106.574 43.4497C106.837 43.7222 107.041 44.0444 107.185 44.4165C107.328 44.7886 107.4 45.2031 107.4 45.6602V45.9458C107.4 46.3999 107.328 46.8145 107.185 47.1895C107.041 47.5615 106.837 47.8838 106.574 48.1562C106.313 48.4258 106.004 48.6338 105.647 48.7803C105.289 48.9268 104.895 49 104.464 49ZM103.871 42.6016V49H102.439V42.6016H103.871ZM121.265 47.8926V49H117.859V47.8926H121.265ZM118.347 42.6016V49H116.914V42.6016H118.347ZM120.826 45.1768V46.249H117.859V45.1768H120.826ZM121.269 42.6016V43.7134H117.859V42.6016H121.269ZM131.294 42.6016H132.48L134.018 47.1763L135.552 42.6016H136.739L134.497 49H133.535L131.294 42.6016ZM130.608 42.6016H131.817L132.041 47.3433V49H130.608V42.6016ZM136.216 42.6016H137.429V49H135.992V47.3433L136.216 42.6016ZM148.033 42.6016L149.285 45.4492L150.547 42.6016H152.093L150.015 46.6885V49H148.56V46.6885L146.477 42.6016H148.033Z" fill="#FCC319"/>
<path d="M8.24207 11.8089V5.06529H11.4268L13.0191 6.90446C16.3475 5.48304 17.4137 4.21637 19.3886 2C21.5169 4.79986 22.736 5.91175 24.9618 6.90446L28.1465 5.06529H30.5351V11.8089H8.24207Z" fill="#FCC319" stroke="black" stroke-width="2.89809" stroke-linejoin="round"/>
<path d="M37 16.2675H19.8344H2V41.0127C2.31407 44.1964 3.2505 45.8935 6.79299 48.7038L19.8344 56.3949L31.8726 48.7038C35.6697 46.0474 36.9042 44.3849 37 41.0127V16.2675Z" fill="#FCC319" stroke="black" stroke-width="2.89809"/>
<circle cx="19.5512" cy="30.2518" r="6.36857" stroke="black" stroke-width="3.63918"/>
<line x1="10.4713" y1="42.5371" x2="28.6672" y2="42.5371" stroke="black" stroke-width="3.63918"/>
<path d="M71.0273 26.5781V27.2129C71.0273 28.2936 70.8776 29.2637 70.5781 30.123C70.2852 30.9824 69.8652 31.7148 69.3184 32.3203C68.778 32.9258 68.1335 33.3913 67.3848 33.7168C66.6426 34.0358 65.819 34.1953 64.9141 34.1953C64.0091 34.1953 63.1823 34.0358 62.4336 33.7168C61.6849 33.3913 61.0339 32.9258 60.4805 32.3203C59.9336 31.7148 59.5104 30.9824 59.2109 30.123C58.9115 29.2637 58.7617 28.2936 58.7617 27.2129V26.5781C58.7617 25.4974 58.9115 24.5273 59.2109 23.668C59.5104 22.8021 59.9303 22.0664 60.4707 21.4609C61.0176 20.8555 61.6654 20.3932 62.4141 20.0742C63.1628 19.7487 63.9896 19.5859 64.8945 19.5859C65.7995 19.5859 66.6263 19.7487 67.375 20.0742C68.1237 20.3932 68.7682 20.8555 69.3086 21.4609C69.8555 22.0664 70.2786 22.8021 70.5781 23.668C70.8776 24.5273 71.0273 25.4974 71.0273 26.5781ZM67.8145 27.2129V26.5586C67.8145 25.8359 67.7493 25.1979 67.6191 24.6445C67.4889 24.0846 67.3001 23.6159 67.0527 23.2383C66.8053 22.8607 66.4993 22.5775 66.1348 22.3887C65.7702 22.1934 65.3568 22.0957 64.8945 22.0957C64.4128 22.0957 63.9928 22.1934 63.6348 22.3887C63.2767 22.5775 62.974 22.8607 62.7266 23.2383C62.4857 23.6159 62.3001 24.0846 62.1699 24.6445C62.0462 25.1979 61.9844 25.8359 61.9844 26.5586V27.2129C61.9844 27.929 62.0462 28.5671 62.1699 29.127C62.3001 29.6803 62.4889 30.1491 62.7363 30.5332C62.9837 30.9173 63.2865 31.207 63.6445 31.4023C64.0091 31.5977 64.4323 31.6953 64.9141 31.6953C65.3763 31.6953 65.7865 31.5977 66.1445 31.4023C66.5091 31.207 66.8151 30.9173 67.0625 30.5332C67.3099 30.1491 67.4954 29.6803 67.6191 29.127C67.7493 28.5671 67.8145 27.929 67.8145 27.2129ZM77.5641 19.7812V34H74.3805V19.7812H77.5641ZM83.1598 25.7773V28.2383H76.6754V25.7773H83.1598ZM83.7848 19.7812V22.252H76.6754V19.7812H83.7848ZM94.1105 30.25C94.1105 30.0091 94.0747 29.7943 94.0031 29.6055C93.9315 29.4102 93.8013 29.2311 93.6125 29.0684C93.4237 28.9056 93.1568 28.7428 92.8117 28.5801C92.4667 28.4108 92.0142 28.2383 91.4543 28.0625C90.8163 27.8542 90.2076 27.6198 89.6281 27.3594C89.0552 27.0924 88.5441 26.7832 88.0949 26.4316C87.6457 26.0801 87.2909 25.6699 87.0305 25.2012C86.7766 24.7324 86.6496 24.1855 86.6496 23.5605C86.6496 22.9551 86.7831 22.4082 87.05 21.9199C87.3169 21.4316 87.6913 21.015 88.173 20.6699C88.6548 20.3184 89.2212 20.0514 89.8723 19.8691C90.5233 19.6803 91.2395 19.5859 92.0207 19.5859C93.0624 19.5859 93.9771 19.7715 94.7648 20.1426C95.5591 20.5072 96.1776 21.0215 96.6203 21.6855C97.063 22.3431 97.2844 23.1081 97.2844 23.9805H94.1203C94.1203 23.5964 94.0389 23.2578 93.8762 22.9648C93.7199 22.6654 93.479 22.431 93.1535 22.2617C92.8345 22.0924 92.4341 22.0078 91.9523 22.0078C91.4836 22.0078 91.0897 22.0794 90.7707 22.2227C90.4582 22.3594 90.2206 22.5482 90.0578 22.7891C89.9016 23.0299 89.8234 23.2936 89.8234 23.5801C89.8234 23.8079 89.882 24.0163 89.9992 24.2051C90.1229 24.3874 90.2987 24.5599 90.5266 24.7227C90.7609 24.8789 91.0474 25.0286 91.3859 25.1719C91.7245 25.3151 92.1118 25.4518 92.548 25.582C93.3098 25.8229 93.9836 26.0898 94.5695 26.3828C95.162 26.6758 95.66 27.0078 96.0637 27.3789C96.4673 27.75 96.7701 28.1699 96.9719 28.6387C97.1802 29.1074 97.2844 29.638 97.2844 30.2305C97.2844 30.862 97.1607 31.4219 96.9133 31.9102C96.6724 32.3984 96.3208 32.8151 95.8586 33.1602C95.4029 33.4987 94.856 33.7559 94.218 33.9316C93.5799 34.1074 92.8671 34.1953 92.0793 34.1953C91.3632 34.1953 90.6568 34.1042 89.9602 33.9219C89.2635 33.7331 88.632 33.4466 88.0656 33.0625C87.5057 32.6784 87.0565 32.1901 86.718 31.5977C86.3859 30.9987 86.2199 30.2891 86.2199 29.4688H89.4035C89.4035 29.8984 89.4654 30.263 89.5891 30.5625C89.7128 30.8555 89.8885 31.0931 90.1164 31.2754C90.3508 31.4577 90.634 31.5879 90.966 31.666C91.298 31.7441 91.6691 31.7832 92.0793 31.7832C92.5546 31.7832 92.9387 31.7181 93.2316 31.5879C93.5311 31.4512 93.7525 31.2656 93.8957 31.0312C94.0389 30.7969 94.1105 30.5365 94.1105 30.25ZM106.165 29.0586H102.591V26.5879H106.165C106.692 26.5879 107.115 26.5 107.434 26.3242C107.76 26.1484 107.998 25.9076 108.147 25.6016C108.304 25.2891 108.382 24.9375 108.382 24.5469C108.382 24.1432 108.304 23.7689 108.147 23.4238C107.998 23.0723 107.76 22.7891 107.434 22.5742C107.115 22.3594 106.692 22.252 106.165 22.252H103.743V34H100.559V19.7812H106.165C107.298 19.7812 108.268 19.9863 109.075 20.3965C109.889 20.8066 110.511 21.3698 110.94 22.0859C111.376 22.7956 111.595 23.6094 111.595 24.5273C111.595 25.4453 111.376 26.2428 110.94 26.9199C110.511 27.597 109.889 28.1243 109.075 28.502C108.268 28.873 107.298 29.0586 106.165 29.0586ZM119.157 22.4863L115.485 34H112.086L117.35 19.7812H119.498L119.157 22.4863ZM122.204 34L118.522 22.4863L118.141 19.7812H120.319L125.602 34H122.204ZM122.047 28.707V31.168H114.635V28.707H122.047ZM136.162 29.2344H139.326C139.274 30.2109 139.007 31.0736 138.525 31.8223C138.05 32.5645 137.389 33.1471 136.543 33.5703C135.697 33.987 134.691 34.1953 133.525 34.1953C132.594 34.1953 131.761 34.0358 131.025 33.7168C130.29 33.3978 129.665 32.9421 129.15 32.3496C128.643 31.7507 128.252 31.0312 127.979 30.1914C127.712 29.3451 127.578 28.3913 127.578 27.3301V26.4609C127.578 25.3997 127.718 24.446 127.998 23.5996C128.278 22.7533 128.678 22.0306 129.199 21.4316C129.72 20.8327 130.345 20.3737 131.074 20.0547C131.803 19.7357 132.617 19.5762 133.516 19.5762C134.727 19.5762 135.749 19.7943 136.582 20.2305C137.415 20.6667 138.06 21.2656 138.516 22.0273C138.978 22.7891 139.255 23.6582 139.346 24.6348H136.172C136.146 24.0814 136.042 23.6159 135.859 23.2383C135.677 22.8542 135.397 22.5645 135.02 22.3691C134.642 22.1738 134.141 22.0762 133.516 22.0762C133.06 22.0762 132.66 22.1608 132.314 22.3301C131.976 22.4993 131.693 22.763 131.465 23.1211C131.243 23.4792 131.077 23.9349 130.967 24.4883C130.856 25.0352 130.801 25.6862 130.801 26.4414V27.3301C130.801 28.0788 130.85 28.7266 130.947 29.2734C131.045 29.8203 131.201 30.2728 131.416 30.6309C131.637 30.9889 131.921 31.2559 132.266 31.4316C132.611 31.6074 133.031 31.6953 133.525 31.6953C134.092 31.6953 134.564 31.6074 134.941 31.4316C135.319 31.2493 135.609 30.9759 135.811 30.6113C136.012 30.2467 136.13 29.7878 136.162 29.2344ZM152.162 31.5391V34H144.593V31.5391H152.162ZM145.677 19.7812V34H142.494V19.7812H145.677ZM151.185 25.5039V27.8867H144.593V25.5039H151.185ZM152.171 19.7812V22.252H144.593V19.7812H152.171Z" fill="#0C0C0C"/>
</svg>
