<svg width="300" height="298" viewBox="0 0 300 298" fill="none" xmlns="http://www.w3.org/2000/svg">
<path d="M50.6217 3.79659L3.88282 50.1027C1.39794 52.5646 0 55.9174 0 59.4154V279.328C0.808451 290.022 3.25584 294.485 12.6092 297.089C13.6032 297.366 14.639 297.479 15.6709 297.479H241.556C245.076 297.479 248.448 296.064 250.913 293.552L296.247 247.353C298.653 244.903 300 241.606 300 238.172V14.9043C300 12.7332 299.481 10.5792 298.199 8.82701C296.068 5.91405 292.145 1.56999 286.962 0.230984C286.251 0.0472513 285.513 0 284.779 0H59.8481C56.3925 0 53.0766 1.36446 50.6217 3.79659Z" fill="#017AFF"/>
<path d="M269.244 223.866V29.2437H249.58H74.6218V223.866H269.244Z" fill="white"/>
<path d="M162.504 115.686L250.02 29.2437H269.244V223.866H250.02L162.504 135.907C155.67 128.01 155.49 123.583 162.504 115.686Z" fill="#7FBDFF"/>
</svg>
