<svg width="390" height="96" viewBox="0 0 390 96" fill="none" xmlns="http://www.w3.org/2000/svg">
<path d="M139.673 68.9014L135.175 83.0056H131.012L137.46 65.5876H140.092L139.673 68.9014ZM143.406 83.0056L138.896 68.9014L138.429 65.5876H141.097L147.569 83.0056H143.406ZM143.214 76.5217V79.5364H134.134V76.5217H143.214ZM182.31 77.1677H186.186C186.122 78.364 185.795 79.4207 185.205 80.3379C184.623 81.2471 183.813 81.9609 182.776 82.4792C181.74 82.9897 180.507 83.2449 179.08 83.2449C177.939 83.2449 176.919 83.0495 176.017 82.6587C175.116 82.2679 174.35 81.7096 173.72 80.9839C173.098 80.2502 172.62 79.3689 172.285 78.3401C171.958 77.3033 171.794 76.1349 171.794 74.835V73.7703C171.794 72.4703 171.966 71.3019 172.309 70.2651C172.652 69.2284 173.142 68.3431 173.78 67.6094C174.418 66.8757 175.184 66.3134 176.077 65.9226C176.97 65.5318 177.967 65.3364 179.068 65.3364C180.551 65.3364 181.803 65.6036 182.824 66.1379C183.845 66.6723 184.635 67.406 185.193 68.3391C185.759 69.2722 186.098 70.3369 186.21 71.5332H182.322C182.29 70.8553 182.162 70.2851 181.939 69.8225C181.716 69.352 181.373 68.9971 180.91 68.7578C180.448 68.5186 179.833 68.3989 179.068 68.3989C178.51 68.3989 178.019 68.5026 177.596 68.71C177.182 68.9173 176.835 69.2403 176.556 69.679C176.284 70.1176 176.081 70.6759 175.946 71.3538C175.81 72.0237 175.742 72.8212 175.742 73.7463V74.835C175.742 75.7521 175.802 76.5457 175.922 77.2156C176.041 77.8855 176.233 78.4398 176.496 78.8784C176.767 79.3171 177.114 79.644 177.537 79.8594C177.959 80.0747 178.474 80.1824 179.08 80.1824C179.774 80.1824 180.352 80.0747 180.814 79.8594C181.277 79.6361 181.632 79.3011 181.879 78.8545C182.126 78.4079 182.27 77.8456 182.31 77.1677ZM219.109 68.9014L214.611 83.0056H210.447L216.895 65.5876H219.527L219.109 68.9014ZM222.841 83.0056L218.331 68.9014L217.864 65.5876H220.532L227.004 83.0056H222.841ZM222.65 76.5217V79.5364H213.57V76.5217H222.65ZM257.487 83.0056H253.658L253.682 79.991H257.487C258.356 79.991 259.09 79.7916 259.688 79.3928C260.286 78.9861 260.74 78.3879 261.051 77.5984C261.362 76.8009 261.518 75.8319 261.518 74.6914V73.8899C261.518 73.0286 261.43 72.2709 261.255 71.6169C261.079 70.955 260.82 70.4007 260.477 69.9541C260.134 69.5075 259.708 69.1725 259.197 68.9492C258.695 68.7259 258.117 68.6143 257.463 68.6143H253.587V65.5876H257.463C258.643 65.5876 259.72 65.787 260.693 66.1858C261.674 66.5846 262.519 67.1548 263.229 67.8965C263.946 68.6382 264.501 69.5155 264.892 70.5283C265.282 71.5412 265.478 72.6697 265.478 73.9138V74.6914C265.478 75.9276 265.282 77.0561 264.892 78.0769C264.501 79.0898 263.946 79.967 263.229 80.7087C262.519 81.4425 261.678 82.0087 260.705 82.4075C259.732 82.8062 258.659 83.0056 257.487 83.0056ZM255.872 65.5876V83.0056H251.972V65.5876H255.872ZM303.222 79.991V83.0056H293.95V79.991H303.222ZM295.278 65.5876V83.0056H291.378V65.5876H295.278ZM302.025 72.5979V75.5168H293.95V72.5979H302.025ZM303.234 65.5876V68.6143H293.95V65.5876H303.234ZM330.522 65.5876H333.752L337.939 78.041L342.114 65.5876H345.344L339.243 83.0056H336.623L330.522 65.5876ZM328.656 65.5876H331.945L332.556 78.4956V83.0056H328.656V65.5876ZM343.92 65.5876H347.222V83.0056H343.31V78.4956L343.92 65.5876ZM376.089 65.5876L379.499 73.3396L382.932 65.5876H387.143L381.485 76.7131V83.0056H377.525V76.7131L371.855 65.5876H376.089Z" fill="#017AFF"/>
<path d="M160.586 32.8165C160.586 36.6994 159.875 40.0378 158.455 42.8316C157.034 45.6136 155.087 47.7563 152.613 49.2598C150.15 50.7514 147.351 51.4972 144.213 51.4972C141.064 51.4972 138.253 50.7514 135.779 49.2598C133.316 47.7563 131.375 45.6077 129.954 42.8139C128.534 40.02 127.823 36.6876 127.823 32.8165C127.823 28.9335 128.534 25.6011 129.954 22.8191C131.375 20.0253 133.316 17.8826 135.779 16.3909C138.253 14.8875 141.064 14.1358 144.213 14.1358C147.351 14.1358 150.15 14.8875 152.613 16.3909C155.087 17.8826 157.034 20.0253 158.455 22.8191C159.875 25.6011 160.586 28.9335 160.586 32.8165ZM155.152 32.8165C155.152 29.8569 154.673 27.365 153.714 25.3406C152.767 23.3045 151.464 21.7655 149.807 20.7237C148.161 19.6701 146.297 19.1433 144.213 19.1433C142.118 19.1433 140.248 19.6701 138.602 20.7237C136.957 21.7655 135.654 23.3045 134.696 25.3406C133.748 27.365 133.275 29.8569 133.275 32.8165C133.275 35.776 133.748 38.2739 134.696 40.3101C135.654 42.3344 136.957 43.8734 138.602 44.927C140.248 45.9688 142.118 46.4896 144.213 46.4896C146.297 46.4896 148.161 45.9688 149.807 44.927C151.464 43.8734 152.767 42.3344 153.714 40.3101C154.673 38.2739 155.152 35.776 155.152 32.8165ZM173.427 51V14.633H195.979V19.3564H178.914V30.437H194.363V35.1427H178.914V51H173.427ZM228.562 24.1864C228.373 22.5054 227.592 21.2032 226.218 20.2798C224.845 19.3446 223.117 18.877 221.033 18.877C219.542 18.877 218.251 19.1137 217.162 19.5873C216.073 20.0489 215.227 20.6882 214.623 21.5051C214.031 22.31 213.735 23.2275 213.735 24.2574C213.735 25.1216 213.936 25.8674 214.339 26.4949C214.753 27.1223 215.292 27.6491 215.955 28.0753C216.629 28.4896 217.352 28.8388 218.121 29.123C218.891 29.3952 219.63 29.6202 220.341 29.7977L223.892 30.7211C225.052 31.0052 226.242 31.39 227.461 31.8753C228.681 32.3607 229.811 33 230.853 33.7931C231.895 34.5863 232.735 35.5689 233.375 36.7409C234.026 37.9128 234.351 39.3157 234.351 40.9493C234.351 43.0092 233.819 44.8382 232.753 46.4364C231.7 48.0345 230.167 49.2953 228.154 50.2187C226.153 51.1421 223.732 51.6037 220.891 51.6037C218.168 51.6037 215.813 51.1717 213.824 50.3075C211.835 49.4433 210.278 48.218 209.154 46.6317C208.029 45.0335 207.408 43.1394 207.289 40.9493H212.794C212.9 42.2634 213.327 43.3584 214.072 44.2345C214.83 45.0986 215.795 45.7438 216.967 46.17C218.151 46.5843 219.447 46.7915 220.856 46.7915C222.407 46.7915 223.786 46.5488 224.993 46.0635C226.213 45.5663 227.171 44.8796 227.87 44.0036C228.568 43.1157 228.918 42.0799 228.918 40.8961C228.918 39.8188 228.61 38.9368 227.994 38.2502C227.39 37.5636 226.568 36.9954 225.526 36.5455C224.496 36.0957 223.33 35.6991 222.028 35.3558L217.73 34.1838C214.818 33.3906 212.51 32.2246 210.805 30.6856C209.112 29.1466 208.266 27.1105 208.266 24.5771C208.266 22.4817 208.834 20.6527 209.97 19.0901C211.107 17.5274 212.646 16.314 214.587 15.4498C216.529 14.5738 218.719 14.1358 221.158 14.1358C223.62 14.1358 225.792 14.5678 227.675 15.432C229.569 16.2962 231.06 17.486 232.149 19.0013C233.239 20.5047 233.807 22.2331 233.854 24.1864H228.562ZM246.909 51V14.633H259.872C262.701 14.633 265.045 15.1479 266.904 16.1778C268.762 17.2078 270.153 18.6165 271.077 20.4041C272 22.1798 272.462 24.1805 272.462 26.4061C272.462 28.6435 271.994 30.656 271.059 32.4436C270.135 34.2193 268.738 35.6281 266.868 36.6698C265.009 37.6997 262.671 38.2147 259.854 38.2147H250.94V33.5623H259.357C261.144 33.5623 262.594 33.2545 263.707 32.6389C264.82 32.0115 265.637 31.1591 266.158 30.0818C266.679 29.0046 266.939 27.7793 266.939 26.4061C266.939 25.0328 266.679 23.8135 266.158 22.7481C265.637 21.6826 264.814 20.848 263.689 20.2443C262.577 19.6405 261.109 19.3387 259.286 19.3387H252.396V51H246.909ZM284.109 51H278.285L291.372 14.633H297.711L310.798 51H304.974L294.692 21.2387H294.408L284.109 51ZM285.086 36.7586H303.979V41.3755H285.086V36.7586ZM350.547 26.4593H345.006C344.793 25.2755 344.397 24.2338 343.817 23.3341C343.237 22.4344 342.526 21.6708 341.686 21.0434C340.845 20.4159 339.904 19.9424 338.862 19.6228C337.832 19.3031 336.737 19.1433 335.577 19.1433C333.482 19.1433 331.606 19.6701 329.948 20.7237C328.303 21.7773 327 23.3222 326.042 25.3584C325.094 27.3946 324.621 29.8806 324.621 32.8165C324.621 35.776 325.094 38.2739 326.042 40.3101C327 42.3463 328.309 43.8852 329.966 44.927C331.623 45.9688 333.488 46.4896 335.559 46.4896C336.708 46.4896 337.797 46.3357 338.827 46.0279C339.869 45.7083 340.81 45.2407 341.65 44.6251C342.491 44.0095 343.201 43.2578 343.781 42.3699C344.373 41.4702 344.781 40.4403 345.006 39.2802L350.547 39.2979C350.251 41.0855 349.677 42.731 348.824 44.2345C347.984 45.7261 346.901 47.0164 345.575 48.1056C344.261 49.1828 342.757 50.0174 341.064 50.6093C339.371 51.2012 337.525 51.4972 335.524 51.4972C332.375 51.4972 329.569 50.7514 327.107 49.2598C324.645 47.7563 322.703 45.6077 321.283 42.8139C319.874 40.02 319.169 36.6876 319.169 32.8165C319.169 28.9335 319.88 25.6011 321.3 22.8191C322.721 20.0253 324.662 17.8826 327.125 16.3909C329.587 14.8875 332.387 14.1358 335.524 14.1358C337.454 14.1358 339.253 14.414 340.922 14.9703C342.603 15.5149 344.113 16.3199 345.45 17.3853C346.788 18.439 347.895 19.7293 348.771 21.2564C349.647 22.7717 350.239 24.506 350.547 26.4593ZM363.113 51V14.633H385.913V19.3564H368.6V30.437H384.724V35.1427H368.6V46.2765H386.127V51H363.113Z" fill="black"/>
<path d="M16.1989 1.21491L1.2425 16.0329C0.447342 16.8207 0 17.8936 0 19.0129V89.3848C0.258704 92.8071 1.04187 94.2352 4.03494 95.0685C4.35304 95.157 4.68448 95.1932 5.01468 95.1932H77.298C78.4243 95.1932 79.5033 94.7403 80.2921 93.9364L94.7992 79.1531C95.5688 78.3688 96 77.3138 96 76.2149V4.76936C96 4.07462 95.8339 3.38536 95.4237 2.82464C94.7417 1.89249 93.4863 0.502395 91.8279 0.0739147C91.6004 0.0151204 91.3642 0 91.1292 0H19.1514C18.0456 0 16.9845 0.436629 16.1989 1.21491Z" fill="#017AFF"/>
<path d="M86.1581 71.6369V9.35799H79.8657H23.8792V71.6369H86.1581Z" fill="white"/>
<path d="M52.0014 37.0196L80.0065 9.35799H86.158V71.6369H80.0065L52.0014 43.4901C49.8144 40.9632 49.7568 39.5464 52.0014 37.0196Z" fill="#7FBDFF"/>
</svg>
