<svg width="382" height="145" viewBox="0 0 382 145" fill="none" xmlns="http://www.w3.org/2000/svg">
<path d="M151.979 107.055L147.848 120.009H144.024L149.946 104.011H152.364L151.979 107.055ZM155.407 120.009L151.265 107.055L150.836 104.011H153.287L159.231 120.009H155.407ZM155.231 114.054V116.823H146.892V114.054H155.231ZM191.139 114.647H194.699C194.64 115.746 194.34 116.716 193.798 117.559C193.263 118.394 192.52 119.049 191.567 119.525C190.615 119.994 189.483 120.229 188.172 120.229C187.125 120.229 186.187 120.049 185.359 119.69C184.532 119.331 183.829 118.819 183.25 118.152C182.679 117.478 182.239 116.669 181.931 115.724C181.631 114.772 181.481 113.698 181.481 112.505V111.527C181.481 110.333 181.638 109.26 181.953 108.307C182.268 107.355 182.719 106.542 183.305 105.868C183.891 105.194 184.594 104.678 185.414 104.319C186.235 103.96 187.15 103.781 188.161 103.781C189.524 103.781 190.674 104.026 191.611 104.517C192.549 105.007 193.274 105.681 193.787 106.538C194.307 107.395 194.618 108.373 194.721 109.472H191.15C191.121 108.849 191.003 108.326 190.798 107.901C190.593 107.469 190.278 107.143 189.853 106.923C189.428 106.703 188.864 106.593 188.161 106.593C187.649 106.593 187.198 106.689 186.81 106.879C186.429 107.069 186.11 107.366 185.854 107.769C185.605 108.172 185.418 108.685 185.294 109.307C185.169 109.923 185.107 110.655 185.107 111.505V112.505C185.107 113.347 185.162 114.076 185.272 114.691C185.381 115.306 185.557 115.815 185.799 116.218C186.048 116.621 186.367 116.921 186.755 117.119C187.143 117.317 187.616 117.416 188.172 117.416C188.81 117.416 189.341 117.317 189.765 117.119C190.19 116.914 190.516 116.606 190.743 116.196C190.97 115.786 191.102 115.27 191.139 114.647ZM224.937 107.055L220.806 120.009H216.982L222.904 104.011H225.321L224.937 107.055ZM228.365 120.009L224.223 107.055L223.794 104.011H226.244L232.188 120.009H228.365ZM228.189 114.054V116.823H219.85V114.054H228.189ZM260.185 120.009H256.669L256.691 117.24H260.185C260.984 117.24 261.657 117.057 262.207 116.691C262.756 116.317 263.174 115.768 263.459 115.043C263.745 114.31 263.888 113.42 263.888 112.373V111.637C263.888 110.845 263.807 110.15 263.646 109.549C263.485 108.941 263.247 108.432 262.932 108.022C262.617 107.611 262.225 107.304 261.756 107.099C261.295 106.894 260.764 106.791 260.163 106.791H256.603V104.011H260.163C261.247 104.011 262.236 104.194 263.13 104.561C264.031 104.927 264.807 105.451 265.459 106.132C266.118 106.813 266.627 107.619 266.986 108.549C267.345 109.479 267.525 110.516 267.525 111.659V112.373C267.525 113.508 267.345 114.545 266.986 115.482C266.627 116.412 266.118 117.218 265.459 117.899C264.807 118.573 264.034 119.093 263.141 119.46C262.247 119.826 261.262 120.009 260.185 120.009ZM258.702 104.011V120.009H255.12V104.011H258.702ZM302.191 117.24V120.009H293.676V117.24H302.191ZM294.895 104.011V120.009H291.313V104.011H294.895ZM301.092 110.45V113.131H293.676V110.45H301.092ZM302.202 104.011V106.791H293.676V104.011H302.202ZM327.265 104.011H330.231L334.077 115.449L337.911 104.011H340.878L335.275 120.009H332.868L327.265 104.011ZM325.551 104.011H328.572L329.133 115.867V120.009H325.551V104.011ZM339.571 104.011H342.603V120.009H339.01V115.867L339.571 104.011ZM369.116 104.011L372.248 111.131L375.401 104.011H379.269L374.072 114.23V120.009H370.435V114.23L365.227 104.011H369.116Z" fill="#365DC1"/>
<path d="M19.6066 28.5246V11.6639H27.5691L31.5504 16.2623C39.8719 12.7084 42.5379 9.54143 47.4754 4C52.7967 11.0003 55.8447 13.7803 61.4098 16.2623L69.3724 11.6639H75.3443V28.5246H19.6066Z" fill="#365DC1" stroke="black" stroke-width="7.2459" stroke-linejoin="round"/>
<path d="M91.5082 39.6721H48.5902H4V101.541C4.78525 109.501 7.12654 113.744 15.9836 120.77L48.5902 140L78.6885 120.77C88.1821 114.129 91.2687 109.972 91.5082 101.541V39.6721Z" fill="#365DC1" stroke="black" stroke-width="7.2459"/>
<circle cx="47.8821" cy="74.6362" r="15.9229" stroke="black" stroke-width="9.0988"/>
<line x1="25.1803" y1="105.352" x2="70.6743" y2="105.352" stroke="black" stroke-width="9.0988"/>
<path d="M176.585 67.4469V69.0339C176.585 71.736 176.21 74.1614 175.461 76.31C174.729 78.4586 173.679 80.2899 172.312 81.8037C170.961 83.3175 169.349 84.4813 167.477 85.2952C165.622 86.0928 163.563 86.4916 161.3 86.4916C159.037 86.4916 156.97 86.0928 155.098 85.2952C153.226 84.4813 151.599 83.3175 150.215 81.8037C148.848 80.2899 147.79 78.4586 147.041 76.31C146.292 74.1614 145.918 71.736 145.918 69.0339V67.4469C145.918 64.7448 146.292 62.3194 147.041 60.1708C147.79 58.0059 148.839 56.1665 150.191 54.6527C151.558 53.1389 153.177 51.9832 155.049 51.1856C156.921 50.3717 158.989 49.9648 161.251 49.9648C163.514 49.9648 165.581 50.3717 167.453 51.1856C169.325 51.9832 170.936 53.1389 172.287 54.6527C173.655 56.1665 174.713 58.0059 175.461 60.1708C176.21 62.3194 176.585 64.7448 176.585 67.4469ZM168.552 69.0339V67.398C168.552 65.5912 168.389 63.996 168.063 62.6124C167.738 61.2126 167.266 60.0406 166.647 59.0965C166.029 58.1524 165.264 57.4443 164.352 56.9723C163.44 56.4839 162.407 56.2398 161.251 56.2398C160.047 56.2398 158.997 56.4839 158.101 56.9723C157.206 57.4443 156.449 58.1524 155.831 59.0965C155.228 60.0406 154.765 61.2126 154.439 62.6124C154.13 63.996 153.975 65.5912 153.975 67.398V69.0339C153.975 70.8245 154.13 72.4197 154.439 73.8195C154.765 75.2031 155.237 76.3751 155.855 77.3355C156.474 78.2959 157.231 79.0202 158.126 79.5085C159.037 79.9969 160.095 80.241 161.3 80.241C162.456 80.241 163.481 79.9969 164.376 79.5085C165.288 79.0202 166.053 78.2959 166.672 77.3355C167.29 76.3751 167.754 75.2031 168.063 73.8195C168.389 72.4197 168.552 70.8245 168.552 69.0339ZM192.928 50.4531V86.0033H184.968V50.4531H192.928ZM206.918 65.4447V71.5977H190.706V65.4447H206.918ZM208.481 50.4531V56.6304H190.706V50.4531H208.481ZM234.298 76.6274C234.298 76.0251 234.208 75.488 234.029 75.0159C233.85 74.5276 233.525 74.08 233.053 73.673C232.581 73.2661 231.913 72.8592 231.051 72.4522C230.188 72.029 229.057 71.5977 227.657 71.1582C226.062 70.6373 224.54 70.0513 223.091 69.4002C221.658 68.7328 220.381 67.9596 219.258 67.0806C218.134 66.2016 217.247 65.1762 216.596 64.0042C215.961 62.8322 215.644 61.4649 215.644 59.9022C215.644 58.3884 215.978 57.0211 216.645 55.8003C217.312 54.5795 218.248 53.5377 219.453 52.675C220.657 51.796 222.074 51.1286 223.701 50.6728C225.329 50.2008 227.12 49.9648 229.073 49.9648C231.677 49.9648 233.964 50.4287 235.934 51.3565C237.92 52.268 239.466 53.554 240.573 55.2143C241.68 56.8583 242.233 58.7709 242.233 60.9521H234.322C234.322 59.9917 234.119 59.1453 233.712 58.4128C233.321 57.6641 232.719 57.0781 231.905 56.6548C231.108 56.2316 230.107 56.02 228.902 56.02C227.73 56.02 226.745 56.1991 225.948 56.5572C225.166 56.899 224.572 57.3711 224.165 57.9733C223.775 58.5756 223.579 59.2348 223.579 59.9511C223.579 60.5208 223.726 61.0416 224.019 61.5137C224.328 61.9695 224.767 62.4008 225.337 62.8078C225.923 63.1984 226.639 63.5728 227.486 63.9309C228.332 64.289 229.301 64.6309 230.391 64.9564C232.296 65.5587 233.981 66.2261 235.446 66.9585C236.927 67.691 238.172 68.5212 239.181 69.449C240.19 70.3768 240.947 71.4267 241.452 72.5987C241.973 73.7707 242.233 75.0973 242.233 76.5786C242.233 78.1575 241.924 79.5574 241.305 80.7782C240.703 81.999 239.824 83.0408 238.669 83.9035C237.529 84.7499 236.162 85.3929 234.567 85.8324C232.971 86.2719 231.189 86.4916 229.219 86.4916C227.429 86.4916 225.663 86.2637 223.921 85.808C222.179 85.3359 220.6 84.6197 219.184 83.6593C217.784 82.699 216.661 81.4781 215.815 79.9969C214.985 78.4993 214.57 76.7251 214.57 74.6741H222.529C222.529 75.7484 222.684 76.66 222.993 77.4087C223.303 78.1412 223.742 78.7354 224.312 79.1911C224.898 79.6469 225.606 79.9725 226.436 80.1678C227.266 80.3631 228.194 80.4608 229.219 80.4608C230.408 80.4608 231.368 80.298 232.101 79.9725C232.849 79.6306 233.403 79.1667 233.761 78.5807C234.119 77.9947 234.298 77.3436 234.298 76.6274ZM264.437 73.6486H255.5V67.4713H264.437C265.755 67.4713 266.813 67.2515 267.611 66.812C268.425 66.3726 269.019 65.7703 269.393 65.0052C269.784 64.2239 269.979 63.3449 269.979 62.3683C269.979 61.3591 269.784 60.4231 269.393 59.5604C269.019 58.6814 268.425 57.9733 267.611 57.4362C266.813 56.899 265.755 56.6304 264.437 56.6304H258.381V86.0033H250.422V50.4531H264.437C267.269 50.4531 269.694 50.9658 271.713 51.9913C273.747 53.0168 275.302 54.4248 276.376 56.2154C277.467 57.9896 278.012 60.0243 278.012 62.3194C278.012 64.6146 277.467 66.6086 276.376 68.3014C275.302 69.9943 273.747 71.3128 271.713 72.2569C269.694 73.1847 267.269 73.6486 264.437 73.6486ZM296.919 57.2164L287.739 86.0033H279.242L292.402 50.4531H297.774L296.919 57.2164ZM304.537 86.0033L295.332 57.2164L294.38 50.4531H299.825L313.034 86.0033H304.537ZM304.146 72.7696V78.9226H285.614V72.7696H304.146ZM339.437 74.0881H347.348C347.217 76.5298 346.55 78.6865 345.345 80.5585C344.157 82.4141 342.505 83.8709 340.389 84.929C338.273 85.9707 335.758 86.4916 332.844 86.4916C330.517 86.4916 328.433 86.0928 326.594 85.2952C324.754 84.4976 323.192 83.3582 321.906 81.8769C320.636 80.3794 319.66 78.5807 318.976 76.4809C318.308 74.3648 317.975 71.9802 317.975 69.3269V67.1539C317.975 64.5006 318.325 62.116 319.025 59.9999C319.725 57.8838 320.726 56.077 322.028 54.5795C323.33 53.0819 324.893 51.9344 326.716 51.1368C328.539 50.3392 330.574 49.9403 332.82 49.9403C335.848 49.9403 338.403 50.4856 340.487 51.5762C342.57 52.6668 344.182 54.1644 345.321 56.0689C346.477 57.9733 347.169 60.1464 347.396 62.588H339.461C339.396 61.2044 339.136 60.0406 338.68 59.0965C338.224 58.1361 337.524 57.4118 336.58 56.9234C335.636 56.4351 334.383 56.1909 332.82 56.1909C331.68 56.1909 330.679 56.4025 329.817 56.8258C328.97 57.249 328.262 57.9082 327.692 58.8035C327.139 59.6988 326.724 60.8382 326.447 62.2218C326.171 63.5891 326.032 65.2168 326.032 67.105V69.3269C326.032 71.1989 326.154 72.8185 326.398 74.1858C326.643 75.5531 327.033 76.6844 327.57 77.5797C328.124 78.4749 328.832 79.1423 329.695 79.5818C330.557 80.0213 331.607 80.241 332.844 80.241C334.26 80.241 335.441 80.0213 336.385 79.5818C337.329 79.126 338.053 78.4424 338.558 77.5308C339.062 76.6193 339.355 75.4717 339.437 74.0881ZM379.44 79.8504V86.0033H360.517V79.8504H379.44ZM363.227 50.4531V86.0033H355.267V50.4531H363.227ZM376.998 64.7611V70.7187H360.517V64.7611H376.998ZM379.464 50.4531V56.6304H360.517V50.4531H379.464Z" fill="black"/>
</svg>
